<svg xmlns="http://www.w3.org/2000/svg" version="1.1" xmlns:xlink="http://www.w3.org/1999/xlink" xmlns:svgjs="http://svgjs.dev/svgjs" width="1500" height="284" viewBox="0 0 1500 284"><g transform="matrix(1,0,0,1,-0.9090909090909918,-0.8254423839065055)"><svg viewBox="0 0 396 75" data-background-color="#ffffff" preserveAspectRatio="xMidYMid meet" height="284" width="1500" xmlns="http://www.w3.org/2000/svg" xmlns:xlink="http://www.w3.org/1999/xlink"><g id="tight-bounds" transform="matrix(1,0,0,1,0.2400000000000091,0.21798654504573278)"><svg viewBox="0 0 395.52 74.56402690990855" height="74.56402690990855" width="395.52"><g><svg viewBox="0 0 395.52 74.56402690990855" height="74.56402690990855" width="395.52"><g><svg viewBox="0 0 591.8387451494586 111.57433282678687" height="74.56402690990855" width="395.52"><g><rect width="7.280671837214991" height="96.88075209272375" x="169.97872295304214" y="7.346790367031559" fill="#0053cc" opacity="1" stroke-width="0" stroke="transparent" fill-opacity="1" class="rect-qz-0" data-fill-palette-color="primary" rx="1%" id="qz-0" data-palette-color="#0053cc"></rect></g><g transform="matrix(1,0,0,1,196.31874514945866,15.420186374758536)"><svg viewBox="0 0 395.52 80.7339600772698" height="80.7339600772698" width="395.52"><g id="textblocktransform"><svg viewBox="0 0 395.52 80.7339600772698" height="80.7339600772698" width="395.52" id="textblock"><g><svg viewBox="0 0 395.52 80.7339600772698" height="80.7339600772698" width="395.52"><g transform="matrix(1,0,0,1,0,0)"><svg width="395.52" viewBox="2.45 -37.3 232.93 47.55" height="80.7339600772698" data-palette-color="#0053cc"><path d="M25.75-33.4L23.9-29.7Q22.05-30.65 19.85-31.35 17.65-32.05 15.55-32.05L15.55-32.05Q12.65-32.05 10.93-30.7 9.2-29.35 9.2-27.1L9.2-27.1Q9.2-25.4 10.3-24.23 11.4-23.05 13.2-22.2 15-21.35 16.95-20.6L16.95-20.6Q18.65-19.95 20.3-19.15 21.95-18.35 23.28-17.15 24.6-15.95 25.38-14.2 26.15-12.45 26.15-9.85L26.15-9.85Q26.15-7 24.73-4.65 23.3-2.3 20.65-0.95 18 0.4 14.35 0.4L14.35 0.4Q11.95 0.4 9.78-0.15 7.6-0.7 5.75-1.58 3.9-2.45 2.45-3.4L2.45-3.4 4.6-7.2Q5.8-6.35 7.35-5.58 8.9-4.8 10.6-4.33 12.3-3.85 13.9-3.85L13.9-3.85Q15.6-3.85 17.28-4.48 18.95-5.1 20.05-6.4 21.15-7.7 21.15-9.85L21.15-9.85Q21.15-11.7 20.18-12.93 19.2-14.15 17.6-15.03 16-15.9 14.2-16.6L14.2-16.6Q12.5-17.25 10.75-18.03 9-18.8 7.5-19.93 6-21.05 5.1-22.7 4.2-24.35 4.2-26.7L4.2-26.7Q4.2-29.55 5.58-31.68 6.95-33.8 9.35-35.02 11.75-36.25 14.85-36.35L14.85-36.35Q18.35-36.35 21.03-35.5 23.7-34.65 25.75-33.4L25.75-33.4ZM31.35-10.55L31.35-10.55Q31.35-13.65 32.82-16.15 34.3-18.65 36.9-20.1 39.5-21.55 42.8-21.55L42.8-21.55Q46.2-21.55 48.75-20.1 51.3-18.65 52.7-16.15 54.1-13.65 54.1-10.55L54.1-10.55Q54.1-7.45 52.7-4.93 51.3-2.4 48.72-0.95 46.15 0.5 42.75 0.5L42.75 0.5Q39.45 0.5 36.87-0.88 34.3-2.25 32.82-4.73 31.35-7.2 31.35-10.55ZM36-10.5L36-10.5Q36-8.5 36.9-6.88 37.8-5.25 39.32-4.3 40.85-3.35 42.7-3.35L42.7-3.35Q44.65-3.35 46.17-4.3 47.7-5.25 48.55-6.88 49.4-8.5 49.4-10.5L49.4-10.5Q49.4-12.5 48.55-14.13 47.7-15.75 46.17-16.73 44.65-17.7 42.7-17.7L42.7-17.7Q40.8-17.7 39.27-16.7 37.75-15.7 36.87-14.08 36-12.45 36-10.5ZM60.39 0L60.39-20.7 65.05-20.7 65.05 0 60.39 0ZM60.05-28.2L60.05-28.2Q60.05-29.3 60.92-30.05 61.8-30.8 62.84-30.8L62.84-30.8Q63.89-30.8 64.72-30.05 65.55-29.3 65.55-28.2L65.55-28.2Q65.55-27.05 64.72-26.33 63.89-25.6 62.84-25.6L62.84-25.6Q61.8-25.6 60.92-26.35 60.05-27.1 60.05-28.2ZM83.04 10.25L83.04 10.25Q80.74 10.25 78.99 9.73 77.24 9.2 75.82 8.25 74.39 7.3 73.09 6.1L73.09 6.1 75.79 2.95Q77.44 4.5 79.14 5.35 80.84 6.2 82.94 6.2L82.94 6.2Q85.29 6.2 86.92 5.43 88.54 4.65 89.39 3.28 90.24 1.9 90.24 0.1L90.24 0.1 90.29-5.5 90.69-4.6Q89.79-2.45 87.44-0.98 85.09 0.5 81.74 0.5L81.74 0.5Q78.89 0.5 76.52-0.95 74.14-2.4 72.72-4.88 71.29-7.35 71.29-10.45L71.29-10.45Q71.29-13.7 72.79-16.18 74.29-18.65 76.74-20.1 79.19-21.55 82.09-21.55L82.09-21.55Q84.84-21.55 87.12-20.43 89.39-19.3 90.44-17.55L90.44-17.55 90.19-16.7 90.69-20.7 94.94-20.7 94.94 0.15Q94.94 2.95 93.49 5.25 92.04 7.55 89.39 8.9 86.74 10.25 83.04 10.25ZM75.94-10.55L75.94-10.55Q75.94-8.55 76.89-6.9 77.84-5.25 79.47-4.3 81.09-3.35 83.09-3.35L83.09-3.35Q84.94-3.35 86.42-4.03 87.89-4.7 88.89-5.88 89.89-7.05 90.29-8.6L90.29-8.6 90.29-12.7Q89.84-14.2 88.79-15.33 87.74-16.45 86.29-17.07 84.84-17.7 83.09-17.7L83.09-17.7Q81.09-17.7 79.47-16.8 77.84-15.9 76.89-14.28 75.94-12.65 75.94-10.55ZM102.99-20.7L107.14-20.7 107.54-15.65 107.34-16.45Q108.34-18.75 110.59-20.13 112.84-21.5 115.79-21.5L115.79-21.5Q118.74-21.5 120.62-19.78 122.49-18.05 122.54-15.3L122.54-15.3 122.54 0 117.84 0 117.84-13.65Q117.79-15.35 116.87-16.43 115.94-17.5 113.99-17.5L113.99-17.5Q112.19-17.5 110.74-16.5 109.29-15.5 108.47-13.75 107.64-12 107.64-9.7L107.64-9.7 107.64 0 102.99 0 102.99-20.7ZM140.24 0.5L140.24 0.5Q136.69 0.5 134.14-0.93 131.59-2.35 130.21-4.83 128.84-7.3 128.84-10.5L128.84-10.5Q128.84-13.55 130.39-16.05 131.94-18.55 134.54-20.05 137.14-21.55 140.34-21.55L140.34-21.55Q144.44-21.55 147.14-19.15 149.84-16.75 150.79-12.55L150.79-12.55 133.74-6.55 132.64-9.3 146.64-14.4 145.64-13.75Q145.04-15.4 143.64-16.63 142.24-17.85 139.99-17.85L139.99-17.85Q138.09-17.85 136.59-16.93 135.09-16 134.24-14.4 133.39-12.8 133.39-10.75L133.39-10.75Q133.39-8.6 134.29-6.98 135.19-5.35 136.76-4.42 138.34-3.5 140.34-3.5L140.34-3.5Q141.69-3.5 142.96-4 144.24-4.5 145.34-5.3L145.34-5.3 147.49-1.85Q145.94-0.8 144.01-0.15 142.09 0.5 140.24 0.5ZM162.49 0L157.79 0 157.79-37.3 157.84-37.3 176.79-10.4 174.74-10.8 193.64-37.3 193.74-37.3 193.74 0 188.94 0 188.94-26.3 189.24-23.85 175.59-4.55 175.49-4.55 161.64-23.85 162.49-26.1 162.49 0ZM201.18-10.55L201.18-10.55Q201.18-13.65 202.66-16.15 204.13-18.65 206.73-20.1 209.33-21.55 212.63-21.55L212.63-21.55Q216.03-21.55 218.58-20.1 221.13-18.65 222.53-16.15 223.93-13.65 223.93-10.55L223.93-10.55Q223.93-7.45 222.53-4.93 221.13-2.4 218.56-0.95 215.98 0.5 212.58 0.5L212.58 0.5Q209.28 0.5 206.71-0.88 204.13-2.25 202.66-4.73 201.18-7.2 201.18-10.55ZM205.83-10.5L205.83-10.5Q205.83-8.5 206.73-6.88 207.63-5.25 209.16-4.3 210.68-3.35 212.53-3.35L212.53-3.35Q214.48-3.35 216.01-4.3 217.53-5.25 218.38-6.88 219.23-8.5 219.23-10.5L219.23-10.5Q219.23-12.5 218.38-14.13 217.53-15.75 216.01-16.73 214.48-17.7 212.53-17.7L212.53-17.7Q210.63-17.7 209.11-16.7 207.58-15.7 206.71-14.08 205.83-12.45 205.83-10.5ZM230.23 0L230.23-20.7 234.88-20.7 234.88 0 230.23 0ZM229.88-28.2L229.88-28.2Q229.88-29.3 230.76-30.05 231.63-30.8 232.68-30.8L232.68-30.8Q233.73-30.8 234.56-30.05 235.38-29.3 235.38-28.2L235.38-28.2Q235.38-27.05 234.56-26.33 233.73-25.6 232.68-25.6L232.68-25.6Q231.63-25.6 230.76-26.35 229.88-27.1 229.88-28.2Z" opacity="1" transform="matrix(1,0,0,1,0,0)" fill="#0053cc" class="wordmark-text-0" data-fill-palette-color="primary" id="text-0"></path></svg></g></svg></g></svg></g></svg></g><g><svg viewBox="0 0 150.9193725938406 111.57433282678687" height="111.57433282678687" width="150.9193725938406"><g><svg xmlns="http://www.w3.org/2000/svg" xmlns:xlink="http://www.w3.org/1999/xlink" version="1.1" x="0" y="0" viewBox="7.896 18.437 83.99999999999999 62.101" enable-background="new 0 0 100 100" xml:space="preserve" height="111.57433282678687" width="150.9193725938406" class="icon-icon-0" data-fill-palette-color="accent" id="icon-0"><g fill="#0053cc" data-fill-palette-color="accent"><path d="M89.774 36.738l-5.933 3.479-0.036 2.549-7.827 9.025c-0.668 0.769-0.584 1.932 0.186 2.6 0.767 0.668 1.931 0.585 2.597-0.184l4.965-5.721-0.12 8.373c0 0.983 0.668 1.808 1.573 2.05-0.018 0.102-0.026 0.208-0.026 0.316v17.813l-2.501 0.591c-1.094 0-1.979 0.888-1.979 1.98 0 1.094 0.885 0.918 1.979 0.918h4.275c0.064 0.007 0.134 0.011 0.204 0.011 1.092 0 1.978-0.887 1.978-1.98V59.225c0-0.094-0.009-0.186-0.021-0.277 0.993-0.177 1.747-1.042 1.747-2.088l1.061-18C91.893 37.688 90.944 36.738 89.774 36.738z" fill="#0053cc" data-fill-palette-color="accent"></path><circle cx="87.129" cy="32.018" r="4.1" fill="#0053cc" data-fill-palette-color="accent"></circle></g><g fill="#0053cc" data-fill-palette-color="accent"><g fill="#0053cc" data-fill-palette-color="accent"><path d="M59.327 75.076l-2.21 2.694 0.639 0.679c0.495 0.526 1.322 0.552 1.851 0.057l0.609-0.573c0.527-0.497 0.554-1.324 0.057-1.851L59.327 75.076z" fill="#0053cc" data-fill-palette-color="accent"></path><polygon points="58.18,73.854 55.969,76.549 56.538,77.155 58.749,74.46   " fill="#0053cc" data-fill-palette-color="accent"></polygon><polygon points="57.101,72.708 54.891,75.403 55.389,75.933 57.6,73.238   " fill="#0053cc" data-fill-palette-color="accent"></polygon><g fill="#0053cc" data-fill-palette-color="accent"><path d="M48.72 63.8c-0.292-0.312-0.7-0.444-1.093-0.404-0.05-0.005-0.099-0.009-0.149-0.009h-0.333-2.187H32.037l-1.106-7.079-0.193-1.237 6.492-1.016 5.271-0.823c0.576-0.09 0.971-0.631 0.881-1.208l-0.105-0.668c-0.089-0.576-0.63-0.971-1.208-0.881l-11.763 1.837-0.593-3.805c-0.112-0.715-0.782-1.202-1.497-1.091l-0.827 0.128c-0.715 0.112-1.202 0.78-1.091 1.495l1.034 6.619c-3.877 2.351-6.468 6.608-6.468 11.473 0 7.404 6.002 13.405 13.406 13.405 7.208 0 13.085-5.687 13.394-12.817l6.649 7.068 2.211-2.693L48.72 63.8zM34.27 78.457c-6.254 0-11.325-5.071-11.325-11.326 0-3.797 1.872-7.157 4.741-9.211l1.216 7.78c0.106 0.681 0.719 1.154 1.394 1.102 0.104 0.025 0.21 0.042 0.321 0.042h14.974c0.003 0.097 0.007 0.191 0.007 0.289C45.596 73.386 40.523 78.457 34.27 78.457z" fill="#0053cc" data-fill-palette-color="accent"></path><circle cx="26.869" cy="42.126" r="4.1" fill="#0053cc" data-fill-palette-color="accent"></circle></g></g><g fill="#0053cc" data-fill-palette-color="accent"><path d="M7.896 38.861l1.061 18c0 1.044 0.755 1.911 1.748 2.088-0.012 0.092-0.021 0.184-0.021 0.278v19.331c0 1.092 0.885 1.979 1.978 1.979 0.07 0 0.137-0.006 0.204-0.012h4.274c1.092 0 1.978 0.176 1.978-0.918 0-1.092-0.885-1.979-1.978-1.979l-2.5-0.593v-17.81c0-0.108-0.011-0.214-0.027-0.319 0.905-0.241 1.575-1.064 1.575-2.049l-0.12-8.373 4.964 5.723c0.666 0.77 1.83 0.852 2.6 0.185 0.768-0.667 0.851-1.83 0.184-2.6l-7.83-9.026-0.036-2.549-5.931-3.479C8.846 36.739 7.896 37.689 7.896 38.861z" fill="#0053cc" data-fill-palette-color="accent"></path><circle cx="12.662" cy="32.019" r="4.1" fill="#0053cc" data-fill-palette-color="accent"></circle></g></g><g fill="#0053cc" data-fill-palette-color="accent"><path d="M67.21 56.654h9.008c0.218 0 0.396-0.177 0.396-0.397 0-0.22-0.178-0.397-0.396-0.397H67.21c-0.219 0-0.396 0.178-0.396 0.397C66.812 56.476 66.989 56.654 67.21 56.654z" fill="#0053cc" data-fill-palette-color="accent"></path><path d="M66.505 56.325c0.17-0.138 0.197-0.389 0.059-0.56L60.9 48.76c-0.138-0.17-0.389-0.195-0.559-0.058s-0.197 0.389-0.058 0.559l5.663 7.006C66.085 56.436 66.335 56.464 66.505 56.325z" fill="#0053cc" data-fill-palette-color="accent"></path><path d="M75.965 57.191h-9.14c-1.15 0-2.084 0.933-2.084 2.085v18.616c0 1.151 0.932 2.086 2.084 2.086h9.14c1.15 0 2.085-0.933 2.085-2.086V59.276C78.05 58.125 77.117 57.191 75.965 57.191z" fill="#0053cc" data-fill-palette-color="accent"></path></g><polygon points="72.9,21 72.9,18.437 70.526,18.437 70.526,21 67.963,21 67.963,23.374 70.526,23.374 70.526,25.937 72.9,25.937   72.9,23.374 75.463,23.374 75.463,21 " fill="#0053cc" data-fill-palette-color="accent"></polygon></svg></g></svg></g></svg></g></svg></g><defs></defs></svg><rect width="395.52" height="74.56402690990855" fill="none" stroke="none" visibility="hidden"></rect></g></svg></g></svg>